<svg 
 xmlns="http://www.w3.org/2000/svg"
 xmlns:xlink="http://www.w3.org/1999/xlink"
 width="716px" height="189px">
<path fill-rule="evenodd"  fill="rgb(255, 255, 255)"
 d="M3.252,104.692 C-1.340,83.991 -1.034,62.090 5.547,41.689 C12.435,29.239 20.393,17.538 21.771,3.138 C56.360,2.687 90.796,10.187 125.538,8.838 C129.364,11.388 132.884,7.638 136.710,7.638 C143.138,6.137 149.566,9.738 155.995,7.938 C175.126,4.937 194.410,9.288 213.541,6.438 C252.262,8.688 290.984,2.388 329.705,2.388 C337.817,1.337 346.081,0.737 354.346,0.737 C358.325,0.587 361.998,4.637 365.978,1.938 C381.283,2.988 397.047,2.988 412.352,5.838 C412.658,6.588 413.423,7.938 413.882,8.688 C418.168,9.288 423.830,11.388 426.738,7.038 C429.340,7.188 431.942,7.488 434.697,7.788 C434.697,8.538 434.544,10.188 434.391,11.088 C439.901,5.238 445.257,11.838 451.991,8.688 L450.920,11.688 C453.216,11.238 455.512,10.788 457.654,10.338 C457.501,11.088 457.195,12.438 457.195,13.188 C469.133,13.188 481.989,9.738 493.161,13.938 C487.499,15.288 481.683,15.288 476.173,16.638 C500.355,17.988 525.914,15.138 549.636,18.588 C534.791,19.338 519.639,17.089 505.099,20.539 C510.303,21.889 516.119,19.338 520.710,22.338 C533.566,20.389 547.341,20.989 560.656,20.989 C560.656,21.588 560.656,22.788 560.656,23.389 C563.564,22.938 566.472,22.788 569.380,22.639 C568.462,23.538 566.472,25.339 565.554,26.238 C577.338,27.139 588.817,24.288 600.449,23.839 C600.143,24.888 599.684,26.838 599.378,27.889 C600.908,26.539 602.592,25.039 603.969,23.688 C606.418,23.688 609.020,23.839 611.468,23.989 C609.632,25.189 607.642,25.939 605.500,26.088 C605.652,26.389 605.652,26.988 605.806,27.289 C610.091,26.838 614.529,26.539 618.968,26.389 C618.509,25.339 617.590,23.538 617.131,22.489 C618.662,23.239 620.192,24.288 621.876,24.739 C622.335,23.839 623.406,22.038 624.018,21.139 C624.478,22.788 624.937,24.439 624.937,26.238 C638.558,27.588 652.333,28.639 665.801,31.039 C665.954,32.239 665.954,34.639 666.107,35.839 C666.872,34.339 667.637,32.839 668.096,31.339 C670.851,32.239 673.606,33.289 675.902,35.089 C676.208,34.489 676.667,33.139 676.974,32.389 C688.605,32.539 700.084,29.538 711.562,31.939 C691.972,35.389 672.229,37.639 652.486,37.789 C665.954,42.889 681.412,38.689 695.645,40.789 C693.809,41.689 691.819,42.589 689.983,43.339 C684.320,43.939 678.504,43.039 672.841,44.089 C672.382,44.689 671.311,46.189 670.698,46.789 C654.628,48.139 638.711,49.339 622.488,50.239 C622.488,51.290 622.335,53.390 622.335,54.289 C624.631,53.990 626.926,54.590 628.763,55.940 C627.845,55.790 626.008,55.489 625.243,55.340 C622.182,56.690 618.968,56.690 615.601,56.989 L616.825,52.789 C614.529,54.590 612.387,56.389 609.938,57.890 C609.326,57.740 608.101,57.440 607.642,57.290 C603.663,59.240 599.071,57.740 594.939,59.090 C594.480,58.790 593.409,58.189 592.950,57.890 C591.878,58.939 590.807,59.990 589.582,61.039 C593.255,60.740 597.082,60.289 600.755,60.140 C600.296,62.090 599.990,64.040 599.531,66.140 C601.367,66.440 603.357,66.740 605.193,66.890 C600.908,65.689 599.378,63.140 601.520,58.939 C602.439,59.840 604.428,61.489 605.500,62.390 C608.254,58.040 613.764,59.539 618.049,58.789 C618.509,59.240 619.274,60.140 619.733,60.590 C622.641,57.589 627.080,59.840 630.600,59.389 C627.845,61.039 624.325,64.790 620.957,62.390 C619.733,62.989 618.509,63.589 617.284,64.189 C616.978,63.439 616.519,61.790 616.213,60.889 C614.835,62.989 613.458,65.090 612.234,67.190 C612.999,66.590 614.376,65.390 614.988,64.790 C619.121,65.539 623.406,64.790 627.539,64.939 C628.304,64.040 629.681,62.089 630.293,61.039 C630.293,62.239 630.446,64.640 630.446,65.840 C639.017,63.890 626.467,59.840 633.967,59.090 C639.170,58.939 644.374,58.189 649.731,58.339 C645.598,61.489 640.088,59.840 635.191,60.440 C635.191,61.790 635.191,64.490 635.191,65.840 C637.640,65.389 639.936,64.640 642.078,63.290 C642.690,63.740 643.762,64.790 644.374,65.240 C644.680,64.490 645.139,62.989 645.292,62.239 C646.057,62.839 647.588,64.040 648.353,64.640 C667.943,64.339 687.381,61.190 706.818,59.689 C696.564,64.040 684.626,61.940 674.678,66.740 C674.066,66.440 672.841,65.840 672.076,65.539 C665.954,65.689 659.985,67.040 653.710,66.440 C652.945,67.190 651.567,68.839 650.955,69.589 C650.190,68.839 648.659,67.340 647.894,66.590 C647.282,67.040 646.211,67.940 645.598,68.390 C642.996,67.190 640.548,68.690 638.252,69.740 C637.180,69.290 635.956,68.839 634.885,68.390 C633.354,69.589 631.671,70.789 630.293,71.990 C633.814,71.840 637.333,71.690 641.007,71.690 C640.088,72.890 638.099,74.989 637.180,76.190 C642.078,76.790 641.160,67.940 646.211,71.390 C647.282,71.090 649.272,70.339 650.343,70.040 C649.272,72.440 646.517,72.740 644.221,73.790 C646.670,74.389 649.118,75.740 651.874,75.140 C651.874,76.040 651.720,77.840 651.567,78.740 C653.863,76.940 656.159,73.940 659.526,75.590 C658.914,76.340 657.689,77.990 657.077,78.740 C657.689,78.890 658.914,79.040 659.526,79.191 C659.679,77.091 661.209,75.891 662.587,74.690 C665.801,75.440 669.168,75.740 672.382,76.190 C671.770,76.940 670.392,78.441 669.780,79.191 C670.698,79.040 672.688,78.890 673.759,78.740 C673.606,77.990 673.453,76.640 673.453,75.890 C682.024,75.140 690.289,73.790 698.859,73.040 C696.258,73.940 693.656,74.840 691.054,75.890 C685.850,75.440 680.646,76.790 675.443,76.640 C675.902,77.540 676.667,79.190 677.126,80.090 C686.309,79.191 695.645,77.990 704.981,78.590 C698.400,80.390 689.064,79.040 684.779,85.341 C684.320,84.740 683.554,83.390 683.095,82.790 C680.646,82.940 678.198,83.090 675.749,83.391 L677.126,86.091 L673.147,85.791 L674.066,83.391 C671.923,84.591 669.780,85.640 667.484,86.541 C665.342,86.991 663.352,87.591 661.209,88.041 C660.903,86.841 659.985,84.591 659.679,83.541 C659.526,84.741 659.067,87.141 658.914,88.340 C656.618,87.891 655.087,86.541 654.322,84.140 C653.404,84.591 652.333,85.191 651.414,85.640 L654.781,86.841 C651.874,88.340 648.965,89.241 648.200,84.890 C646.976,87.441 645.904,90.741 642.231,89.991 C642.996,88.941 644.527,86.990 645.292,85.941 C644.374,86.541 642.384,87.591 641.466,88.191 C639.936,89.091 638.252,89.991 636.721,90.891 C636.109,90.442 634.885,89.391 634.120,88.941 C631.365,89.541 629.069,90.891 627.385,93.141 C630.446,93.141 633.661,92.841 636.415,94.341 C633.967,94.941 631.365,95.391 628.916,95.992 C629.681,99.292 632.283,97.942 634.579,97.342 C641.466,98.841 648.506,95.842 654.934,97.791 C656.924,97.492 658.914,97.342 660.903,97.192 C659.067,97.942 657.230,98.542 655.393,98.991 C655.087,100.791 654.628,102.592 654.322,104.391 C653.098,102.441 652.945,100.191 652.638,97.942 C650.802,98.542 649.118,99.292 647.282,99.892 C648.200,100.642 649.884,102.142 650.649,102.891 C648.200,103.041 645.751,103.041 643.303,103.192 C644.374,101.842 646.517,99.292 647.588,98.091 C643.303,98.841 638.864,99.142 635.344,101.842 C637.180,102.742 639.017,103.641 640.854,104.692 C636.875,105.292 635.038,101.541 632.895,98.991 C631.824,100.041 630.753,101.091 629.834,102.141 C631.518,102.592 633.201,103.192 634.885,103.792 C630.141,104.542 625.090,106.791 620.345,104.692 C619.733,106.042 618.968,107.392 618.356,108.742 C612.693,103.792 605.193,107.992 598.612,107.091 C596.776,107.992 594.786,108.592 592.796,109.041 C592.184,109.492 590.654,110.391 590.042,110.842 C588.205,109.942 586.215,109.192 584.226,108.592 C584.379,109.492 584.532,111.141 584.532,111.892 C583.766,112.042 582.083,112.192 581.165,112.341 C581.318,109.641 580.858,106.941 578.563,105.292 C579.175,109.342 576.420,110.242 573.206,110.542 C573.512,113.242 573.971,115.942 574.431,118.642 C576.114,118.042 577.797,117.442 579.481,116.842 C577.492,114.892 575.961,112.942 578.869,110.842 C580.705,114.442 584.838,112.492 587.899,112.792 C585.144,115.792 581.624,122.092 587.134,115.492 C588.052,116.842 590.042,118.192 589.276,120.143 C582.695,118.942 575.961,119.993 569.686,121.943 C581.930,123.893 594.174,117.142 605.959,120.742 C610.703,118.642 615.907,118.792 620.957,119.542 C620.804,118.942 620.651,117.893 620.651,117.442 C616.213,118.942 616.519,114.742 616.366,111.741 C612.540,112.192 608.407,113.242 604.734,111.141 C607.642,110.842 610.550,110.692 613.458,110.692 C612.540,110.092 611.009,108.891 610.091,108.141 C611.162,108.141 613.458,107.992 614.529,107.992 L613.152,110.241 C615.754,110.092 618.203,109.942 620.651,109.792 C621.876,108.442 623.253,107.992 624.784,108.592 C623.712,110.092 622.488,111.591 621.417,113.092 C623.712,112.792 626.161,112.492 628.457,112.192 C627.539,111.591 625.702,110.241 624.937,109.491 C630.446,108.891 635.956,108.442 641.619,108.592 C641.619,108.891 641.772,109.491 641.772,109.792 C637.180,110.391 630.906,109.192 628.457,113.992 C633.814,116.242 638.711,109.192 642.690,114.742 C639.629,115.041 636.416,115.192 633.354,115.192 C633.814,116.392 634.579,118.642 635.038,119.692 C635.956,119.542 637.946,119.242 639.017,119.092 C640.241,117.892 641.619,116.992 642.996,116.092 C642.690,117.442 642.384,118.792 641.925,120.142 C637.028,120.142 632.130,120.742 627.233,121.342 C627.539,120.442 627.998,118.792 628.304,118.042 C629.681,118.192 632.436,118.493 633.661,118.642 C633.048,117.442 632.436,116.242 631.671,115.192 C628.304,115.192 624.784,115.192 621.570,116.992 C623.406,118.342 625.243,119.542 627.233,120.892 C615.142,120.892 603.204,122.392 591.113,123.742 C589.889,124.492 588.511,125.392 587.287,126.142 C581.777,126.442 576.267,127.193 570.910,126.442 C570.451,126.742 569.533,127.193 569.074,127.492 C566.319,127.343 563.411,127.343 560.809,126.142 C558.360,126.442 555.759,126.442 554.534,128.842 C564.789,130.342 575.043,126.892 585.297,127.943 C590.654,128.392 596.317,124.342 601.214,128.092 C601.520,127.343 602.132,125.842 602.439,124.942 C604.122,126.142 605.806,127.492 607.336,128.842 L604.275,130.492 C606.265,131.993 608.407,133.792 610.397,135.293 C609.479,132.292 608.560,129.442 607.795,126.442 C609.785,126.292 611.775,126.292 613.917,126.142 C615.447,126.442 616.825,126.593 618.356,126.892 C618.356,126.442 618.356,125.392 618.203,124.942 C624.631,124.642 630.753,123.592 637.181,122.692 L636.109,125.992 C637.181,125.992 639.017,126.142 640.089,126.142 C637.640,127.642 635.344,129.292 633.201,130.942 C630.446,129.142 627.080,125.992 627.385,131.692 C626.467,130.792 624.631,128.992 623.712,128.242 C619.427,128.242 614.835,127.792 611.009,130.342 C612.540,131.542 614.223,132.592 616.060,133.193 C615.601,134.242 614.683,136.493 614.223,137.692 C616.825,135.742 619.427,133.792 622.794,133.792 C622.947,133.042 623.100,131.542 623.100,130.792 C625.855,135.442 630.753,134.092 635.191,133.943 C633.508,134.692 630.141,136.042 628.457,136.792 C633.508,138.442 639.017,137.393 644.221,137.393 C644.986,138.292 646.517,140.243 647.282,141.293 C645.445,141.143 643.456,140.992 641.619,140.992 C639.170,140.693 636.875,140.543 634.426,140.392 C637.334,143.243 641.160,148.043 644.986,143.393 C646.057,143.993 646.976,144.743 648.047,145.343 C650.343,145.343 652.638,145.343 654.934,145.643 C648.965,146.843 642.231,145.493 636.722,148.343 C615.601,146.093 594.633,150.893 573.665,151.343 L573.665,152.393 C577.951,152.393 582.389,152.393 586.675,151.943 C587.134,152.243 587.899,152.843 588.358,153.143 C613.917,149.693 640.548,149.243 666.260,149.693 C663.658,150.593 660.903,151.343 658.148,152.093 C653.710,149.093 649.731,152.093 645.904,154.643 L646.211,152.243 C645.292,152.093 643.609,151.643 642.843,151.493 C643.609,152.093 645.139,153.443 645.904,154.193 C639.630,154.943 632.589,153.743 626.926,157.343 C614.835,155.993 602.132,158.243 589.889,158.993 C590.807,161.093 591.572,163.494 593.868,164.844 C594.021,163.643 594.021,161.394 594.174,160.193 C595.551,161.093 596.929,161.994 598.153,163.043 C607.642,166.644 617.131,157.043 625.855,162.744 C630.753,156.743 639.170,160.943 645.751,160.044 C642.843,161.693 636.722,158.093 636.569,162.293 C641.007,162.744 645.598,162.293 650.037,162.144 C649.731,160.943 649.425,159.743 649.118,158.544 C649.578,158.544 650.649,158.694 651.261,158.694 L650.190,161.093 C671.770,163.643 693.503,160.943 715.083,160.794 C688.758,167.394 660.138,162.744 633.201,167.693 C616.672,167.844 598.459,165.444 583.001,171.144 C610.550,171.144 638.099,168.744 665.648,170.544 C667.944,170.394 670.239,170.844 672.382,171.594 C660.138,174.144 647.588,173.094 635.344,175.044 C633.814,174.444 632.436,173.844 630.906,173.244 C630.906,174.144 630.906,175.794 631.059,176.695 C630.753,176.695 629.988,176.695 629.681,176.695 L629.222,174.744 C628.457,174.744 626.926,174.744 626.161,174.744 L625.243,174.294 C624.172,174.144 622.182,173.694 621.110,173.394 C622.182,174.444 623.253,175.345 624.325,176.244 C622.182,178.045 618.662,176.994 616.060,176.994 C610.397,179.094 604.581,174.444 599.225,177.744 C597.235,177.445 595.398,177.594 593.868,179.094 C593.102,178.045 592.184,177.144 591.419,176.244 C590.195,177.295 588.970,178.344 587.899,179.394 C586.215,178.494 584.532,177.444 582.848,176.544 L582.695,179.544 C581.777,178.645 580.705,177.895 579.787,177.144 C576.267,178.045 572.594,178.194 569.227,179.844 C567.543,178.795 566.013,177.744 564.329,176.695 C560.656,183.144 567.849,185.244 573.053,183.595 L573.053,186.595 C567.084,186.444 560.809,187.195 554.993,185.244 C529.587,186.294 504.181,182.394 479.081,184.045 C478.163,183.594 476.326,182.695 475.408,182.244 C474.490,182.845 472.959,184.045 472.041,184.494 C470.051,183.295 469.745,181.345 472.194,180.294 C468.980,176.394 463.929,177.594 459.644,178.194 C462.858,179.544 466.684,179.694 470.051,179.844 C463.317,184.045 454.593,181.644 447.094,181.345 C446.941,179.844 446.788,178.344 446.635,176.844 C446.482,178.045 446.328,180.294 446.175,181.494 C441.431,182.095 435.921,180.144 431.789,183.144 C436.686,184.795 441.737,184.795 446.788,183.895 C446.482,184.944 446.022,187.044 445.716,188.095 C439.594,185.844 432.860,188.095 426.891,185.094 C425.973,185.844 425.208,186.444 424.289,187.195 C416.331,186.895 408.372,184.195 400.414,185.995 C391.843,185.094 383.272,185.544 374.702,184.645 C372.559,183.744 370.416,182.994 368.426,182.095 C365.366,185.244 360.621,183.295 356.795,183.144 L357.407,186.294 C357.101,185.544 356.336,183.895 355.877,183.144 C350.673,182.244 345.775,184.194 340.572,183.444 C336.898,185.244 330.624,184.795 329.093,180.744 L329.093,180.444 L328.175,183.444 C327.716,182.394 326.797,180.294 326.338,179.244 C319.145,178.494 311.798,180.294 304.605,179.394 C311.033,181.794 318.686,179.994 325.420,182.244 C325.573,182.695 325.879,183.744 326.032,184.194 C315.012,181.644 302.003,188.845 292.974,179.694 C293.279,181.194 294.045,184.045 294.504,185.544 C291.443,184.795 287.464,185.544 285.168,182.844 L288.994,182.695 C288.994,182.394 289.147,181.644 289.147,181.344 C287.923,181.794 285.780,182.545 284.556,182.994 C284.249,181.794 283.943,180.594 283.484,179.394 C282.719,181.044 281.954,182.694 281.189,184.344 C279.658,184.045 278.128,183.895 276.750,183.594 C276.903,184.194 277.362,185.395 277.515,185.995 C275.832,185.844 273.995,185.844 272.312,185.844 C268.485,183.295 263.894,182.394 259.762,180.294 C260.527,180.744 262.210,181.794 263.129,182.394 C264.047,184.045 264.965,185.694 265.883,187.345 C261.292,187.195 256.701,187.495 252.415,185.694 C254.099,185.395 257.466,184.945 259.149,184.645 C257.007,183.295 254.711,182.244 252.109,182.095 C251.497,182.994 250.426,184.645 249.814,185.395 C247.365,184.195 244.763,182.994 242.008,182.394 C242.161,183.445 242.467,185.545 242.620,186.595 C239.865,186.895 237.110,186.745 234.355,186.145 L235.274,183.595 C234.050,183.144 231.907,182.095 230.683,181.644 C231.141,182.994 232.060,185.545 232.519,186.895 C231.295,185.844 228.999,183.895 227.775,182.845 C228.234,183.744 228.999,185.545 229.458,186.444 C224.713,185.995 219.969,185.395 215.224,184.645 C216.142,183.745 217.979,182.095 218.897,181.194 C216.755,181.644 215.224,182.994 214.306,184.945 C206.195,182.095 197.471,181.945 188.900,181.945 C190.737,182.994 192.573,183.895 194.410,184.645 C184.308,185.095 173.901,186.745 163.953,184.494 C164.259,183.295 164.718,181.044 164.871,179.844 C164.259,181.345 163.647,182.845 163.035,184.345 C150.791,185.095 138.547,184.645 126.456,181.794 L125.844,185.395 C125.385,184.045 124.925,182.545 124.313,181.194 C120.487,181.194 116.814,181.645 113.141,182.845 C106.100,179.094 98.295,184.045 91.102,181.045 C88.806,182.095 86.357,181.345 83.908,180.595 C69.216,182.545 57.278,171.144 42.738,171.894 C34.014,172.494 26.821,166.344 25.903,158.094 C17.026,148.943 9.067,138.293 4.476,126.442 C0.650,118.643 6.006,111.293 3.252,104.692 ZM618.815,53.990 C620.651,53.690 621.570,52.640 621.264,50.989 C619.274,49.190 615.754,52.939 618.815,53.990 ZM607.795,53.840 C603.204,51.290 607.642,58.940 607.795,53.840 L607.795,53.840 ZM597.694,55.940 C599.990,55.639 602.898,56.389 604.122,53.990 C601.980,54.140 599.837,54.289 597.694,54.440 C597.694,54.889 597.694,55.639 597.694,55.940 ZM666.260,77.091 C665.342,77.241 663.352,77.541 662.434,77.690 C661.516,81.891 673.912,80.091 666.260,77.091 ZM622.947,70.190 C618.509,67.941 622.947,75.291 622.947,70.190 L622.947,70.190 ZM623.100,101.692 C618.662,99.142 622.641,106.492 623.100,101.692 L623.100,101.692 ZM624.172,97.342 L619.733,97.492 C620.345,95.691 620.957,94.041 621.876,92.391 C620.804,92.391 618.815,92.542 617.743,92.542 C617.896,94.791 618.049,97.192 615.907,98.692 C618.662,99.442 621.876,99.591 624.172,97.342 ZM606.418,104.242 C609.326,103.942 612.387,103.642 615.295,103.492 C615.142,102.592 614.836,100.942 614.683,100.192 C613.611,100.942 612.693,101.542 611.622,102.292 C611.315,100.192 610.856,98.092 610.550,95.992 C608.714,96.442 606.877,97.042 604.888,97.642 C606.112,97.791 608.714,98.242 610.091,98.542 C609.020,100.492 607.642,102.441 606.418,104.242 ZM604.581,102.892 C599.990,100.642 604.734,107.842 604.581,102.892 L604.581,102.892 ZM592.950,97.342 C592.031,98.991 590.960,100.492 589.889,102.142 C590.807,101.691 592.643,100.642 593.562,100.191 C594.939,100.341 596.317,100.492 597.847,100.492 C596.163,99.442 594.480,98.391 592.950,97.342 ZM597.847,103.342 C593.715,103.492 588.970,102.892 585.909,106.042 C590.042,105.892 594.327,105.742 597.847,103.342 ZM567.390,112.793 C568.309,112.942 570.145,113.243 570.910,113.243 C571.063,112.492 571.063,110.842 571.217,110.092 C569.686,110.842 568.002,111.742 566.472,112.492 L565.707,109.792 C564.636,112.492 563.717,115.343 562.952,118.193 C564.942,116.842 566.931,115.343 567.390,112.793 ZM563.411,121.493 C558.973,119.092 562.952,126.443 563.411,121.493 L563.411,121.493 ZM555.452,113.843 C556.218,116.992 560.962,114.742 560.197,112.192 C559.279,109.943 554.840,111.293 555.452,113.843 ZM632.742,145.494 C635.497,145.044 633.354,141.594 631.671,141.143 C627.233,139.494 629.528,145.944 632.742,145.494 ZM606.265,142.343 C599.531,140.844 607.642,149.394 606.265,142.343 L606.265,142.343 ZM605.652,134.094 C604.581,130.943 598.918,133.793 598.000,135.443 C600.296,135.593 604.275,136.493 605.652,134.094 ZM593.562,133.793 C596.317,132.744 599.378,132.594 601.826,130.793 C598.765,131.393 591.419,128.093 593.562,133.793 ZM587.440,137.244 C588.052,136.943 589.123,136.194 589.735,135.894 L588.358,134.094 C589.429,133.043 590.501,131.994 591.572,130.793 C588.970,131.244 586.368,131.843 584.226,133.344 L587.746,133.643 C587.746,134.694 587.593,136.343 587.440,137.244 ZM575.349,136.044 C570.757,133.793 575.196,140.994 575.349,136.044 L575.349,136.044 ZM603.051,154.344 C598.612,152.094 602.898,159.445 603.051,154.344 L603.051,154.344 ZM490.866,21.139 C494.539,21.288 499.130,22.788 502.038,19.788 C498.365,19.638 494.386,19.488 490.866,21.139 ZM502.345,166.195 C498.059,163.495 501.885,171.145 502.345,166.195 L502.345,166.195 ZM505.711,173.845 C500.355,173.845 507.854,178.345 505.711,173.845 L505.711,173.845 ZM508.466,25.638 C501.426,23.989 507.854,32.239 508.466,25.638 L508.466,25.638 ZM519.333,22.338 C513.976,22.489 521.323,26.988 519.333,22.338 L519.333,22.338 ZM528.363,22.489 C523.006,22.489 530.658,26.838 528.363,22.489 L528.363,22.489 ZM543.515,128.543 C538.923,126.293 543.362,133.643 543.515,128.543 L543.515,128.543 ZM580.553,158.994 C575.196,158.994 583.002,163.345 580.553,158.994 L580.553,158.994 ZM586.215,158.994 C581.471,156.894 586.062,163.945 586.215,158.994 L586.215,158.994 ZM575.655,164.545 C579.787,164.095 583.920,164.095 588.052,163.645 C585.144,161.094 581.165,163.194 577.798,163.345 C576.879,161.094 575.349,159.595 572.747,159.595 C573.665,161.245 574.584,162.895 575.655,164.545 ZM570.910,164.845 C569.992,163.345 569.227,161.995 568.462,160.494 C568.002,160.494 567.237,160.344 566.778,160.195 C566.472,162.745 564.176,163.345 562.034,163.945 C565.094,164.245 568.002,164.695 570.910,164.845 ZM554.534,181.195 C556.524,182.245 558.973,182.545 561.728,181.945 C563.564,175.795 556.677,178.196 553.310,177.595 C553.616,178.495 554.228,180.295 554.534,181.195 ZM529.893,180.746 C537.240,179.845 544.739,182.395 551.932,181.045 C551.779,176.696 544.433,179.845 541.066,177.295 C535.556,180.896 528.363,177.595 522.088,179.396 C521.782,178.495 521.170,176.545 520.863,175.495 C520.557,175.495 519.639,175.346 519.333,175.346 C518.108,181.046 511.221,178.196 507.548,176.995 L508.007,179.396 C506.477,178.646 503.263,177.295 501.732,176.545 C508.466,183.895 520.863,178.796 529.893,180.746 ZM496.222,178.196 C498.212,177.895 500.202,177.595 501.885,176.395 C499.896,175.495 497.906,174.746 495.916,173.845 C496.069,175.346 496.069,176.696 496.222,178.196 ZM491.478,23.688 C487.040,21.438 491.325,28.639 491.478,23.688 L491.478,23.688 ZM477.397,171.895 C477.397,169.945 473.877,169.345 472.500,170.545 C472.500,172.645 476.020,173.095 477.397,171.895 ZM474.183,17.988 C476.173,15.588 472.194,12.887 470.204,14.838 C468.367,16.938 472.500,19.638 474.183,17.988 ZM462.552,175.195 C464.388,174.295 466.531,173.995 468.520,174.295 C467.908,171.445 462.552,172.795 460.256,171.145 C459.185,169.645 457.807,169.195 455.818,169.645 C457.195,170.545 458.420,171.295 459.797,172.045 L454.746,172.645 C457.195,173.996 459.797,174.746 462.552,175.195 ZM439.135,176.845 C434.697,174.445 438.829,181.795 439.135,176.845 L439.135,176.845 ZM414.647,176.845 C416.484,177.595 418.474,178.345 420.310,179.095 C420.310,178.945 420.157,178.796 420.157,178.796 C423.371,178.796 426.432,178.945 429.493,178.796 C425.208,176.095 419.698,176.995 414.647,176.845 ZM421.381,186.445 C422.300,185.095 423.065,183.745 423.830,182.395 C426.585,183.296 429.493,184.046 432.401,184.346 C430.871,182.996 429.340,181.795 427.810,180.595 C425.361,180.445 421.841,182.096 420.463,179.396 C415.872,181.195 410.668,179.396 405.924,180.595 C411.127,181.945 418.474,180.746 421.381,186.445 ZM373.936,180.595 C373.936,177.895 367.661,177.295 366.743,179.695 C369.039,180.295 371.641,180.445 373.936,180.595 ZM348.683,178.646 C353.275,178.345 358.785,182.846 362.152,178.345 C359.090,175.195 355.264,173.395 350.826,173.845 C352.050,174.895 354.346,176.846 355.570,177.895 C351.897,177.446 348.377,177.295 344.704,176.846 C344.092,175.645 343.632,174.445 343.021,173.245 C342.714,179.845 335.215,176.696 330.777,177.446 C336.592,179.845 342.714,178.945 348.683,178.646 ZM333.532,173.845 C327.869,170.545 332.154,179.245 333.532,173.845 L333.532,173.845 ZM272.312,180.146 C266.343,183.145 278.740,184.495 272.312,180.146 L272.312,180.146 ZM238.794,181.045 C234.355,178.796 238.794,185.996 238.794,181.045 L238.794,181.045 ZM177.268,181.346 C171.605,177.895 175.738,186.746 177.268,181.346 L177.268,181.346 ZM423.065,5.988 C417.555,5.838 425.514,10.338 423.065,5.988 L423.065,5.988 ZM556.983,17.538 C555.452,16.638 551.626,16.638 551.626,18.888 C553.157,19.938 556.524,19.338 556.983,17.538 ZM569.380,24.288 C572.441,24.589 575.655,24.738 578.716,24.738 C576.267,22.788 571.676,21.588 569.380,24.288 ZM669.627,68.691 C667.331,69.590 665.036,70.491 662.740,71.540 C665.801,72.441 669.474,72.741 669.627,68.691 ZM659.985,73.341 C667.638,67.791 652.945,69.440 659.985,73.341 L659.985,73.341 ZM676.514,70.190 C670.699,67.040 674.831,75.441 676.514,70.190 L676.514,70.190 ZM652.792,70.340 C647.588,70.641 655.241,74.841 652.792,70.340 L652.792,70.340 ZM663.658,92.692 C665.495,93.591 669.780,93.892 670.392,91.641 C668.556,90.742 664.576,90.592 663.658,92.692 ZM657.995,95.242 C658.607,94.942 659.832,94.341 660.444,94.042 C660.138,93.441 659.373,92.091 658.914,91.341 C657.536,92.241 657.230,93.591 657.995,95.242 ZM655.241,92.841 C650.037,93.292 657.689,97.342 655.241,92.841 L655.241,92.841 ZM650.496,94.341 L650.343,92.841 C646.057,92.692 641.466,92.241 637.640,94.341 C641.925,95.992 646.211,94.341 650.496,94.341 ZM662.281,97.041 C662.281,99.142 667.944,98.842 668.097,96.892 C666.107,95.992 664.270,95.992 662.281,97.041 ZM675.137,98.542 C670.851,96.142 674.831,103.642 675.137,98.542 L675.137,98.542 ZM598.000,115.943 C601.061,109.792 590.501,110.692 588.511,113.993 L588.664,114.742 C589.735,114.892 592.031,115.042 593.102,115.042 C592.031,116.392 590.960,117.742 589.889,119.243 C597.694,117.293 606.112,118.943 613.458,115.642 C608.255,115.193 603.051,115.343 598.000,115.943 ZM638.405,133.643 C633.354,134.094 641.007,137.994 638.405,133.643 L638.405,133.643 ZM687.381,143.693 C682.942,141.294 686.922,148.644 687.381,143.693 L687.381,143.693 ZM657.230,146.094 C659.373,147.143 662.128,146.994 664.270,145.944 C663.505,143.994 657.689,143.843 657.230,146.094 ZM599.225,161.395 C601.826,162.444 605.040,161.995 607.489,160.944 C606.418,158.844 600.449,159.445 599.225,161.395 ZM586.215,185.696 C580.553,182.545 584.685,191.096 586.215,185.696 L586.215,185.696 Z"/>
</svg>