<?xml version="1.0" encoding="UTF-8" standalone="no"?>
<svg
   xmlns:dc="http://purl.org/dc/elements/1.1/"
   xmlns:cc="http://creativecommons.org/ns#"
   xmlns:rdf="http://www.w3.org/1999/02/22-rdf-syntax-ns#"
   xmlns:svg="http://www.w3.org/2000/svg"
   xmlns="http://www.w3.org/2000/svg"
   width="2506px"
   height="2489px"
   version="1.1"
   id="svg4">
  <metadata
     id="metadata10">
    <rdf:RDF>
      <cc:Work
         rdf:about="">
        <dc:format>image/svg+xml</dc:format>
        <dc:type
           rdf:resource="http://purl.org/dc/dcmitype/StillImage" />
        <dc:title></dc:title>
      </cc:Work>
    </rdf:RDF>
  </metadata>
  <defs
     id="defs8" />
  <path
     fill-rule="evenodd"
     fill="rgb(101, 101, 101)"
     d="M2474.748,1174.352 C2462.825,1168.512 2449.910,1163.641 2439.974,1155.852 C2433.019,1122.742 2445.935,1089.631 2442.955,1056.524 C2437.988,1045.813 2446.930,1037.046 2450.903,1027.308 C2454.877,1045.813 2458.851,1063.340 2463.819,1080.869 C2511.507,1045.813 2484.682,985.436 2496.605,938.694 C2484.682,949.405 2472.760,959.143 2460.837,969.856 C2456.864,943.563 2477.728,929.929 2495.611,915.321 C2495.611,905.584 2484.683,901.689 2478.722,894.873 C2471.767,907.531 2464.813,919.218 2458.851,931.878 C2449.909,927.007 2440.968,922.138 2433.019,917.269 C2438.981,895.847 2455.870,881.240 2472.761,867.605 L2454.877,867.605 C2454.877,834.497 2464.813,803.335 2478.722,772.174 C2468.786,772.174 2449.910,773.147 2439.974,773.147 C2436.001,790.675 2429.045,806.255 2422.091,822.810 C2427.058,830.601 2433.019,839.364 2437.988,847.155 C2436.001,848.130 2431.032,849.104 2429.045,850.077 C2424.077,837.417 2417.123,825.732 2414.143,813.072 C2424.077,788.728 2440.968,767.303 2453.884,743.932 C2442.955,747.827 2422.090,757.567 2411.163,761.461 C2406.194,751.723 2400.234,741.011 2395.265,731.272 C2387.318,734.196 2379.369,737.116 2370.429,740.036 C2368.440,707.901 2353.538,678.687 2327.706,659.212 C2320.752,666.028 2313.797,673.819 2305.848,680.635 C2293.926,658.237 2282.998,634.868 2273.063,612.470 C2268.096,617.337 2262.134,622.208 2257.167,627.077 C2249.218,611.495 2240.276,596.888 2224.380,587.150 C2228.355,598.836 2235.309,620.259 2239.283,631.944 C2218.419,618.311 2216.433,592.019 2207.490,571.568 C2189.608,555.014 2173.710,537.487 2156.821,520.931 C2125.027,486.849 2117.080,439.132 2088.267,404.075 C2075.352,387.521 2054.488,383.625 2036.604,374.861 C2041.572,373.887 2049.519,372.912 2054.488,371.939 C2046.539,355.385 2038.592,339.805 2027.661,325.198 C2030.643,318.380 2036.604,305.720 2039.584,298.904 C2026.669,277.482 2019.714,251.188 1996.863,238.528 C1980.967,231.712 1963.083,235.606 1946.193,235.606 C1957.122,261.900 1975.007,284.297 1996.863,302.800 C2012.759,317.407 2011.766,340.778 2016.734,361.229 C1999.844,349.543 1994.876,330.067 1988.916,310.589 C1976.993,300.853 1962.089,293.062 1954.142,279.429 C1938.246,287.220 1923.343,277.482 1922.349,260.926 C1914.401,258.004 1907.446,255.084 1900.491,252.162 C1907.446,261.901 1913.406,271.637 1920.362,281.375 C1881.614,280.402 1859.757,244.371 1827.965,228.790 C1800.146,209.315 1751.463,194.708 1764.379,151.861 C1755.437,147.965 1737.553,139.200 1728.612,135.305 C1736.559,132.385 1752.457,127.516 1760.406,124.594 C1742.521,112.909 1723.645,102.197 1703.774,94.406 L1701.787,111.934 C1695.825,98.300 1691.852,82.720 1674.962,83.693 C1674.962,80.773 1673.969,73.955 1673.969,71.035 C1649.130,72.982 1624.293,70.060 1600.448,63.244 C1593.492,66.166 1580.577,72.982 1573.621,75.904 C1578.590,80.773 1587.532,91.484 1591.505,96.353 C1561.699,90.511 1531.894,76.877 1501.095,85.642 C1483.211,78.826 1464.335,75.904 1447.444,85.642 C1435.521,81.746 1424.594,77.851 1413.665,73.955 C1429.561,63.244 1443.470,49.611 1448.437,30.135 C1406.710,20.397 1366.969,-5.897 1323.254,1.894 C1293.448,5.790 1269.603,23.317 1242.778,34.030 C1212.973,35.977 1183.168,32.082 1153.361,31.108 C1103.685,44.742 1053.017,52.533 1004.334,70.060 C1047.055,77.851 1090.769,67.140 1133.492,62.269 C1122.563,112.909 1057.984,114.856 1015.262,115.829 C983.469,105.118 953.663,123.620 926.838,138.227 C855.304,108.038 806.622,224.897 736.082,177.179 C703.295,193.734 672.496,215.157 642.689,237.555 C606.923,248.266 571.157,259.951 541.350,282.349 C511.545,281.375 488.693,300.853 461.868,307.669 C464.849,314.485 468.824,320.327 471.804,328.118 C483.726,330.067 494.654,332.987 506.576,334.934 C516.512,312.538 541.350,307.669 562.215,298.904 C522.474,333.961 472.798,357.332 435.043,396.284 C410.205,397.257 388.348,407.970 369.471,420.630 C370.465,433.288 371.458,445.948 371.458,458.608 C350.594,472.242 333.704,436.210 312.840,452.766 C312.840,471.267 330.723,484.902 335.691,502.429 C307.873,543.329 285.021,587.150 263.164,631.944 C285.021,624.155 305.885,617.337 327.743,607.599 C326.749,599.810 324.762,592.019 320.789,584.229 C332.711,565.727 345.626,547.225 361.523,531.643 C366.490,554.041 344.632,565.727 332.709,579.359 C335.690,582.281 340.658,587.150 343.638,590.072 C367.483,554.041 397.288,522.880 429.082,493.665 C454.912,494.638 473.790,475.164 496.641,465.424 C472.796,492.691 443.984,516.062 417.159,540.407 C412.191,540.407 401.262,541.381 396.295,541.381 C403.250,563.779 383.379,582.281 375.432,601.757 L363.509,599.810 C369.470,608.573 375.432,618.311 381.392,627.077 C372.450,623.181 363.509,619.286 353.574,614.417 C348.605,620.259 337.678,630.971 332.709,635.841 C330.723,650.448 328.736,666.028 322.774,679.662 C311.846,704.007 282.040,719.587 281.046,747.827 C288.001,733.220 293.962,714.718 314.826,725.429 C321.782,715.692 329.729,706.927 336.684,697.191 C340.658,697.191 349.600,696.217 353.574,695.242 C336.684,723.483 319.793,751.723 301.911,778.990 C298.931,772.174 293.962,758.540 290.982,751.723 C281.048,760.487 272.106,768.277 262.170,777.041 C274.093,782.885 288.001,787.754 294.956,799.439 C288.995,805.281 278.066,817.941 272.106,823.784 C271.112,849.104 258.195,872.475 246.274,893.900 C241.306,861.762 238.325,828.653 241.306,796.519 C245.281,780.937 229.383,771.199 221.436,761.461 C211.501,782.884 186.662,780.937 166.791,780.937 C164.804,765.356 163.811,750.749 161.824,735.169 C147.915,747.827 146.922,768.277 141.954,784.832 C112.148,786.781 116.123,814.046 113.141,835.470 C122.083,844.233 132.019,853.971 140.960,862.737 C144.934,844.235 144.934,821.837 164.804,811.126 C165.798,825.732 165.798,840.339 165.798,854.946 C174.740,843.260 182.689,831.575 191.629,818.915 C185.669,815.993 174.740,810.152 169.771,807.230 C173.746,803.335 181.694,796.519 185.668,792.622 C188.648,791.648 193.616,790.675 196.596,789.701 C208.519,815.019 193.616,844.235 179.707,866.631 C165.796,870.527 155.861,881.238 149.900,893.900 C157.849,899.740 165.796,905.583 174.738,911.427 C173.745,897.793 174.738,883.186 177.719,869.553 C183.681,873.449 195.603,880.264 202.557,884.160 C203.550,903.636 184.674,917.269 179.707,934.798 C193.616,947.458 203.551,963.038 206.532,981.541 C192.621,1006.859 184.674,1034.126 178.714,1062.366 C185.668,1055.550 200.570,1041.915 207.525,1036.073 C190.636,1099.371 190.636,1164.615 177.720,1227.913 C184.674,1281.471 184.674,1336.005 192.623,1389.565 C184.674,1378.852 179.707,1363.270 164.804,1362.297 C164.804,1370.088 163.811,1383.721 162.818,1391.512 C133.011,1380.801 141.953,1347.690 137.979,1324.318 C161.824,1322.372 191.629,1310.685 176.727,1281.471 C168.778,1281.471 151.888,1282.446 142.946,1282.446 C131.024,1255.180 111.153,1231.808 91.283,1209.410 C86.315,1222.070 80.354,1235.704 74.393,1248.362 C87.308,1262.969 100.224,1278.551 112.146,1293.158 C107.179,1312.634 104.199,1333.083 101.219,1353.534 C134.004,1367.167 125.064,1400.277 115.128,1426.568 C121.089,1434.359 128.044,1443.124 134.006,1450.915 C142.946,1443.124 151.888,1436.306 161.824,1428.517 C183.681,1443.124 191.629,1468.442 202.558,1490.840 C199.578,1492.787 192.623,1496.682 189.643,1498.629 C182.687,1487.920 181.694,1476.233 185.668,1463.573 L164.804,1469.416 C169.771,1489.867 170.765,1511.289 153.876,1526.871 C161.824,1535.634 169.771,1543.425 178.714,1552.190 C198.585,1526.871 202.558,1556.085 188.649,1567.770 C178.714,1558.032 166.791,1552.190 152.882,1551.216 C152.882,1546.345 154.869,1536.609 154.869,1531.739 C140.960,1510.316 127.051,1489.867 107.181,1472.338 C98.239,1495.709 93.271,1521.027 89.297,1546.345 C95.259,1546.345 108.174,1545.372 114.135,1545.372 C117.116,1565.823 124.070,1586.272 131.026,1606.722 C131.026,1623.277 121.090,1638.857 125.065,1654.438 C134.999,1669.045 149.903,1679.758 159.837,1695.338 C163.812,1711.894 166.792,1728.447 170.766,1745.001 C176.727,1737.212 187.656,1697.287 198.585,1724.553 C216.467,1771.295 255.216,1804.404 276.079,1849.200 C315.820,1910.549 377.418,1956.317 417.159,2017.666 C451.933,2031.300 474.784,2065.383 505.584,2086.807 C541.350,2111.152 551.285,2158.870 589.040,2181.268 C613.878,2196.848 637.722,2213.402 663.554,2225.086 C677.463,2222.166 691.372,2220.219 705.283,2216.324 C719.192,2224.113 731.113,2233.853 747.010,2235.800 C807.615,2247.484 863.252,2275.725 923.857,2283.516 C913.922,2260.144 885.110,2256.249 867.226,2240.668 C892.064,2239.693 916.902,2240.668 940.747,2241.642 C953.663,2257.224 970.554,2265.988 991.417,2265.988 C997.377,2290.333 1028.177,2291.307 1046.060,2305.914 C1031.157,2291.307 1051.029,2283.516 1059.971,2274.751 C1072.887,2285.463 1086.796,2295.202 1100.705,2305.914 C1109.647,2296.176 1121.568,2289.358 1134.485,2285.463 C1128.523,2292.280 1115.607,2305.914 1109.647,2312.730 L1145.413,2311.756 C1116.601,2332.205 1077.853,2336.101 1044.073,2340.970 C1049.042,2344.865 1059.969,2353.628 1064.938,2357.525 C1019.235,2380.897 1004.332,2315.652 962.605,2318.574 C945.714,2325.389 938.760,2341.945 929.818,2356.552 C958.631,2374.079 991.417,2385.766 1019.235,2405.241 C1011.288,2414.004 1002.346,2423.744 994.397,2433.482 C1055.002,2487.040 1141.439,2489.961 1218.934,2488.014 C1252.714,2488.014 1280.532,2467.564 1310.337,2453.931 C1320.273,2434.455 1328.220,2414.004 1328.220,2392.581 C1347.098,2387.713 1363.988,2393.555 1381.871,2400.371 C1366.969,2424.717 1392.801,2434.455 1409.690,2445.167 C1424.593,2441.273 1439.495,2438.349 1454.399,2434.455 C1453.406,2463.669 1483.211,2492.884 1513.016,2478.277 C1557.725,2458.800 1525.932,2390.635 1571.635,2372.132 C1614.355,2357.525 1656.084,2334.154 1702.780,2337.074 C1719.670,2316.625 1736.559,2296.176 1753.449,2275.725 C1775.307,2284.489 1799.152,2284.489 1822.003,2281.569 C1820.016,2268.909 1818.029,2257.224 1817.035,2244.564 C1823.989,2240.668 1838.892,2233.853 1846.841,2230.931 L1849.821,2247.484 C1852.801,2244.564 1858.763,2237.748 1861.744,2234.826 C1859.757,2231.904 1854.790,2226.062 1851.808,2224.115 C1888.568,2196.848 1926.322,2170.554 1959.109,2138.420 C1998.850,2101.416 2026.668,2053.699 2054.487,2007.930 C2074.358,2026.432 2074.358,2051.752 2066.409,2076.097 C2082.305,2069.280 2098.202,2063.437 2115.092,2056.620 C2110.125,2051.752 2101.183,2041.039 2096.216,2036.170 C2123.041,2021.564 2147.879,2003.061 2171.722,1985.532 C2165.761,1969.952 2160.794,1954.371 2154.833,1938.790 C2144.897,1938.790 2133.968,1939.765 2124.034,1939.765 C2148.872,1910.549 2175.697,1882.309 2195.567,1848.226 C2189.606,1863.808 2184.639,1879.388 2185.633,1895.942 C2178.677,1910.549 2171.722,1925.156 2165.761,1939.765 C2175.697,1929.052 2187.619,1919.314 2192.586,1905.680 C2197.555,1909.576 2202.522,1912.496 2207.489,1916.393 C2166.755,1962.161 2166.755,2023.512 2159.801,2079.018 C2142.910,2079.991 2127.014,2081.940 2110.125,2082.913 C2102.176,2093.624 2094.229,2104.336 2086.280,2115.049 C2091.247,2116.996 2102.176,2121.865 2107.143,2123.812 C2099.196,2146.210 2093.234,2168.608 2089.260,2191.979 C2133.968,2201.717 2149.865,2149.130 2190.600,2140.367 C2240.276,2073.174 2298.894,1994.297 2272.069,1906.654 C2273.061,1878.415 2228.354,1876.466 2221.400,1901.785 C2216.431,1897.889 2212.458,1893.022 2207.489,1888.151 C2283.992,1803.432 2311.810,1691.444 2357.511,1590.168 C2368.440,1571.665 2391.292,1559.007 2395.265,1536.609 C2398.245,1522.002 2390.298,1503.500 2402.220,1491.813 C2426.065,1477.207 2405.201,1448.966 2417.123,1429.490 C2446.928,1389.565 2434.012,1337.954 2448.915,1292.184 C2424.077,1282.446 2444.942,1253.233 2443.948,1234.730 C2457.857,1214.279 2469.780,1195.777 2474.748,1174.352 ZM1697.812,109.987 C1706.754,109.987 1725.630,109.987 1734.573,109.987 C1732.586,114.856 1727.619,125.569 1724.637,130.436 C1709.734,131.410 1703.774,121.672 1697.812,109.987 ZM760.920,143.096 C774.830,137.254 779.797,142.123 774.830,155.756 C760.920,160.623 755.953,155.756 760.920,143.096 ZM1776.300,142.123 C1797.164,144.069 1818.029,148.938 1834.919,160.623 C1830.945,167.441 1823.989,179.127 1820.016,185.943 C1805.113,171.336 1790.209,157.703 1776.300,142.123 ZM621.826,206.393 C612.884,201.525 604.937,196.655 595.995,191.786 C629.775,182.048 662.562,165.494 698.328,169.388 C674.483,211.263 621.826,220.999 581.092,239.503 C591.028,222.948 605.930,214.184 621.826,206.393 ZM2185.633,503.402 C2210.471,496.587 2220.405,525.800 2228.354,542.354 C2209.477,537.487 2175.697,530.669 2185.633,503.402 ZM2254.185,607.601 C2247.231,587.150 2238.289,566.701 2232.327,546.251 C2247.231,555.988 2257.165,570.596 2267.101,585.203 C2262.134,592.992 2258.159,599.810 2254.185,607.601 ZM208.520,673.819 C204.547,652.395 224.416,641.684 238.327,629.024 C242.300,648.500 236.338,688.426 208.520,673.819 ZM80.356,1051.653 C65.453,1092.555 57.506,1136.374 40.615,1176.301 C36.642,1153.905 38.628,1130.533 42.603,1108.135 L32.668,1108.135 C34.655,1094.502 38.628,1075.025 19.752,1077.947 C12.797,1106.187 13.790,1137.349 1.869,1165.588 C-6.080,1101.318 13.791,1039.968 20.745,976.672 C30.681,936.745 54.525,901.689 71.415,864.684 C68.435,862.737 63.467,858.842 60.486,856.895 C80.357,858.842 82.344,832.548 93.273,819.890 C98.240,877.342 45.583,917.269 41.610,973.750 C44.590,972.776 50.552,971.803 53.532,971.803 C23.726,996.148 13.791,1051.653 38.630,1084.764 C56.513,1050.680 64.460,1011.728 85.324,978.620 C103.207,1000.043 86.317,1027.308 80.356,1051.653 ZM100.227,931.878 C97.247,908.505 96.253,883.186 111.156,862.737 C135.000,881.240 109.168,910.453 100.227,931.878 ZM2505.547,1137.349 C2503.560,1152.931 2497.598,1168.512 2494.618,1185.066 C2485.676,1176.301 2476.735,1166.563 2467.793,1157.799 C2476.735,1150.008 2493.625,1121.769 2505.547,1137.349 ZM60.486,1348.663 C58.499,1328.216 58.499,1307.765 59.493,1286.340 C76.382,1304.844 79.362,1331.136 60.486,1348.663 ZM2503.560,1368.141 C2503.560,1373.983 2504.553,1385.668 2504.553,1391.512 C2496.605,1393.459 2481.702,1396.381 2474.747,1397.355 C2482.695,1385.668 2491.637,1374.957 2503.560,1368.141 ZM68.434,1390.539 C101.220,1392.486 53.531,1418.779 68.434,1390.539 L68.434,1390.539 ZM69.427,1414.884 C79.362,1434.359 82.343,1456.757 83.337,1478.180 C68.434,1460.651 67.440,1436.306 69.427,1414.884 ZM2383.343,1833.618 C2369.434,1791.745 2377.383,1746.950 2393.278,1707.023 C2436.993,1738.185 2415.136,1800.510 2383.343,1833.618 ZM2380.363,1872.571 C2375.395,1900.811 2359.500,1926.129 2333.668,1939.763 C2331.680,1909.576 2351.551,1884.256 2380.363,1872.571 ZM354.569,2028.379 C340.659,2036.170 329.731,2012.799 338.673,2003.060 C352.582,1995.268 365.498,2018.640 354.569,2028.379 ZM553.274,2167.632 C543.338,2164.712 522.474,2158.870 511.545,2155.946 C518.500,2166.659 525.455,2177.370 532.409,2188.083 C484.720,2174.450 446.966,2144.261 419.148,2104.336 C427.095,2094.596 435.043,2083.885 442.992,2074.149 C481.740,2104.336 510.551,2144.263 553.274,2167.632 ZM2037.597,2145.234 C2051.506,2147.183 2065.416,2149.130 2079.326,2151.079 C2077.338,2153.999 2073.364,2158.868 2070.384,2161.790 C2043.558,2168.608 2018.721,2178.344 1991.894,2186.135 C1994.875,2170.554 2003.817,2156.921 2014.746,2145.234 C2012.759,2142.314 2007.791,2135.498 2005.804,2132.576 C2023.687,2127.707 2041.571,2123.812 2059.455,2118.943 C2053.493,2127.707 2045.546,2136.472 2037.597,2145.234 ZM690.379,2301.043 C652.626,2279.620 606.923,2256.249 591.028,2214.375 C622.820,2217.296 641.696,2244.564 663.554,2263.065 C674.483,2273.778 685.412,2286.436 690.379,2301.043 ZM2009.779,2221.193 C2004.810,2231.904 1999.844,2242.617 1994.875,2253.327 C1972.025,2261.118 1949.174,2269.882 1926.322,2277.672 C1919.367,2265.987 1911.419,2253.327 1904.464,2241.642 C1926.322,2204.637 1974.012,2200.742 2009.779,2221.193 ZM780.790,2302.018 C764.895,2305.912 758.933,2283.516 766.881,2273.778 C784.764,2255.274 799.667,2294.227 780.790,2302.018 ZM911.935,2367.262 C881.137,2409.137 789.732,2374.079 819.538,2321.494 C853.317,2329.283 892.064,2334.154 911.935,2367.262 Z"
     id="path2" />
  <animateTransform
     attributeName="transform"
     attributeType="XML"
     type="rotate"
     from="0"
     to="360"
     dur="50s"
     repeatCount="indefinite" />
</svg>
